<svg width="30" height="30" viewBox="0 0 30 30" fill="none" xmlns="http://www.w3.org/2000/svg">
    <path
        d="M21.6992 19.7642L22.8849 20.3282C23 20.382 23.1278 20.4042 23.2547 20.3927C23.3817 20.3812 23.5031 20.3363 23.6062 20.2627C23.7094 20.1891 23.7904 20.0895 23.8408 19.9745C23.8912 19.8595 23.9091 19.7333 23.8926 19.6091L23.439 16.1603C23.4267 16.0584 23.4373 15.9551 23.47 15.8577C23.5028 15.7602 23.5568 15.671 23.6285 15.5963L26.0572 13.0584C26.1444 12.9674 26.2051 12.8551 26.2329 12.7332C26.2606 12.6113 26.2546 12.4843 26.2152 12.3655C26.1759 12.2468 26.1048 12.1406 26.0093 12.058C25.9138 11.9755 25.7975 11.9198 25.6725 11.8966L22.193 11.2621C22.09 11.2429 21.9926 11.2016 21.9078 11.1412C21.8229 11.0807 21.7527 11.0026 21.7021 10.9124L20.0054 7.86124C19.9438 7.75193 19.8536 7.66081 19.744 7.59737C19.6345 7.53392 19.5096 7.50046 19.3824 7.50046C19.2552 7.50046 19.1304 7.53392 19.0208 7.59737C18.9113 7.66081 18.821 7.75193 18.7594 7.86124L18.1106 9.02869L16.767 11.4115M8.30365 19.7642L7.1151 20.3282C6.99997 20.382 6.87222 20.4042 6.74528 20.3927C6.61835 20.3812 6.49692 20.3363 6.39378 20.2627C6.29065 20.1891 6.20962 20.0895 6.15922 19.9745C6.10883 19.8595 6.09093 19.7333 6.10741 19.6091L6.56102 16.1603C6.5731 16.0586 6.56267 15.9556 6.53047 15.8583C6.49826 15.7609 6.44503 15.6716 6.37441 15.5963L3.94276 13.0584C3.8556 12.9674 3.79494 12.8551 3.76714 12.7332C3.73935 12.6113 3.74544 12.4843 3.78477 12.3655C3.82411 12.2468 3.89524 12.1406 3.99071 12.058C4.08619 11.9755 4.2025 11.9198 4.32746 11.8966L7.81559 11.2621C7.91872 11.2433 8.01629 11.2021 8.10121 11.1416C8.18613 11.0811 8.25626 11.0028 8.30651 10.9124L10.0061 7.86124C10.0672 7.75185 10.1572 7.66062 10.2665 7.59707C10.3759 7.53353 10.5006 7.5 10.6276 7.5C10.7547 7.5 10.8794 7.53353 10.9887 7.59707C11.0981 7.66062 11.188 7.75185 11.2492 7.86124L11.898 9.02869L13.1767 11.5011M15.6503 9.39246L17.4245 12.5818C17.4772 12.6764 17.5507 12.7583 17.6396 12.8217C17.7284 12.8851 17.8305 12.9284 17.9384 12.9484L21.5758 13.6224C21.7067 13.6464 21.8285 13.7046 21.9286 13.7909C22.0286 13.8772 22.1032 13.9884 22.1443 14.1128C22.1854 14.2372 22.1917 14.3702 22.1624 14.4977C22.133 14.6253 22.0692 14.7428 21.9777 14.8378L19.437 17.48C19.362 17.5585 19.3057 17.6523 19.2719 17.7547C19.2382 17.8571 19.2279 17.9655 19.2417 18.0722L19.7154 21.6789C19.7326 21.8087 19.7137 21.9406 19.661 22.0607C19.6082 22.1808 19.5234 22.2848 19.4156 22.3615C19.3077 22.4383 19.1808 22.4851 19.0481 22.497C18.9155 22.5089 18.782 22.4854 18.6618 22.429L15.3172 20.8753C15.2184 20.8279 15.1099 20.8033 15 20.8033C14.8901 20.8033 14.7816 20.8279 14.6828 20.8753L11.3382 22.429C11.218 22.4854 11.0845 22.5089 10.9519 22.497C10.8192 22.4851 10.6923 22.4383 10.5844 22.3615C10.4766 22.2848 10.3918 22.1808 10.339 22.0607C10.2862 21.9406 10.2674 21.8087 10.2846 21.6789L10.7583 18.0722C10.7721 17.9655 10.7618 17.8571 10.7281 17.7547C10.6943 17.6523 10.638 17.5585 10.563 17.48L8.0223 14.8378C7.93075 14.7428 7.86696 14.6253 7.83764 14.4977C7.80833 14.3702 7.81457 14.2372 7.8557 14.1128C7.89684 13.9884 7.97135 13.8772 8.07139 13.7909C8.17144 13.7046 8.29333 13.6464 8.42422 13.6224L12.0616 12.9484C12.1697 12.9287 12.2719 12.8856 12.3608 12.8222C12.4497 12.7588 12.5231 12.6766 12.5755 12.5818L14.3497 9.39246C14.4135 9.27771 14.5075 9.18194 14.6219 9.11522C14.7363 9.04849 14.8669 9.01329 15 9.01329C15.1331 9.01329 15.2637 9.04849 15.3781 9.11522C15.4925 9.18194 15.5865 9.27771 15.6503 9.39246Z"
        stroke="#FFD16F" stroke-linecap="round" stroke-linejoin="round" />
</svg>