<svg width="17" height="22" viewBox="0 0 17 22" fill="none" xmlns="http://www.w3.org/2000/svg">
    <path
        d="M8.25027 20.6001H1.24827L0.604393 8.12527C0.52391 6.83754 1.5702 5.79126 2.77744 5.79126H6.7211C8.00882 5.79126 8.97463 6.83754 8.89414 8.12527L8.25027 20.6001Z"
        stroke="#AFAFAF" stroke-width="1.2" stroke-miterlimit="10" stroke-linecap="round" stroke-linejoin="round" />
    <path d="M7.04301 2.65234H2.45551V5.87166H7.04301V2.65234Z" stroke="#AFAFAF" stroke-width="1.2"
        stroke-miterlimit="10" stroke-linecap="round" stroke-linejoin="round" />
    <path d="M6.23818 17.2198H3.42128L2.61646 9.49341H6.96255L6.23818 17.2198Z" stroke="#AFAFAF" stroke-width="1.2"
        stroke-miterlimit="10" stroke-linecap="round" stroke-linejoin="round" />
    <path
        d="M8.33081 19.2319H16.3791V7.48138C16.3791 6.27414 15.4133 5.30835 14.2061 5.30835H10.7453C9.7795 5.30835 8.89419 5.95221 8.65274 6.91801"
        stroke="#AFAFAF" stroke-width="1.2" stroke-miterlimit="10" stroke-linecap="round" stroke-linejoin="round" />
    <path d="M14.9303 5.30835H9.85986V0.962271C11.55 0.479373 13.2402 0.479373 14.9303 0.962271V5.30835Z"
        stroke="#AFAFAF" stroke-width="1.2" stroke-miterlimit="10" stroke-linecap="round" stroke-linejoin="round" />
</svg>