<svg width="29" height="30" viewBox="0 0 29 30" fill="none" xmlns="http://www.w3.org/2000/svg">
    <path
        d="M21.3276 10.1636V21.1665C21.3276 22.1827 20.9171 23.1573 20.1864 23.8761C19.4556 24.595 18.4644 24.9992 17.4305 25H11.5726C11.0605 25 10.5535 24.9008 10.0805 24.7081C9.60747 24.5154 9.17772 24.233 8.8158 23.877C8.45388 23.521 8.16689 23.0984 7.97122 22.6333C7.77556 22.1682 7.67505 21.6698 7.67545 21.1665V10.1636M11.8518 13.4844V21.1001M17.1482 13.4844V21.1001M11.413 7.60293V6.94239C11.4146 6.42773 11.6233 5.9346 11.9936 5.57067C12.3639 5.20675 12.8656 5.00159 13.3892 5H15.6139C16.1375 5.00159 16.6392 5.20675 17.0095 5.57067C17.3797 5.9346 17.5885 6.42773 17.5901 6.94239V7.60293M6.76715 7.60293H22.2329C22.6565 7.60293 23 7.94052 23 8.35696V9.4096C23 9.82604 22.6565 10.1636 22.2329 10.1636H6.76715C6.34346 10.1636 6 9.82604 6 9.4096V8.35696C6 7.94052 6.34346 7.60293 6.76715 7.60293Z"
        stroke="#F52664" stroke-linecap="round" stroke-linejoin="round" />
</svg>